# This file uses centimeters as units for non-parametric coordinates.

mtllib outer_water_circle.mtl
g default
v 15.439252 -1.455771 -0.000000
v 14.683603 -1.455771 -3.656815
v 12.490618 -1.455771 -6.955676
v 9.074966 -1.455771 -9.573667
v 4.770991 -1.455771 -11.254519
v -0.000001 -1.455771 -11.833702
v -4.770993 -1.455771 -11.254519
v -9.074967 -1.455771 -9.573667
v -12.490620 -1.455771 -6.955676
v -14.683606 -1.455771 -3.656815
v -15.439257 -1.455771 0.000000
v -14.683606 -1.455771 3.656816
v -12.490621 -1.455771 6.955677
v -9.074968 -1.455771 9.573669
v -4.770993 -1.455771 11.254522
v -0.000000 -1.455771 11.833706
v 4.770993 -1.455771 11.254522
v 9.074969 -1.455771 9.573670
v 12.490626 -1.455771 6.955679
v 14.683609 -1.455771 3.656816
v 15.439252 1.455771 -0.000000
v 14.683603 1.455771 -3.656815
v 12.490618 1.455771 -6.955676
v 9.074966 1.455771 -9.573667
v 4.770991 1.455771 -11.254519
v -0.000001 1.455771 -11.833702
v -4.770993 1.455771 -11.254519
v -9.074967 1.455771 -9.573667
v -12.490620 1.455771 -6.955676
v -14.683606 1.455771 -3.656815
v -15.439257 1.455771 0.000000
v -14.683606 1.455771 3.656816
v -12.490621 1.455771 6.955677
v -9.074968 1.455771 9.573669
v -4.770993 1.455771 11.254522
v -0.000000 1.455771 11.833706
v 4.770993 1.455771 11.254522
v 9.074969 1.455771 9.573670
v 12.490626 1.455771 6.955679
v 14.683609 1.455771 3.656816
v 17.154725 1.455771 -0.000000
v 16.315114 1.455771 -4.063128
v 13.878465 1.455771 -7.728529
v 10.083295 1.455771 -10.637407
v 5.301102 1.455771 -12.505022
v -0.000001 1.455771 -13.148559
v -5.301103 1.455771 -12.505023
v -10.083296 1.455771 -10.637407
v -13.878467 1.455771 -7.728529
v -16.315118 1.455771 -4.063129
v -17.154729 1.455771 -0.000000
v -16.315118 1.455771 4.063129
v -13.878469 1.455771 7.728530
v -10.083298 1.455771 10.637410
v -5.301104 1.455771 12.505026
v -0.000000 1.455771 13.148563
v 5.301104 1.455771 12.505028
v 10.083301 1.455771 10.637413
v 13.878473 1.455771 7.728533
v 16.315125 1.455771 4.063131
v 17.154725 -1.455771 -0.000000
v 16.315114 -1.455771 -4.063128
v 13.878465 -1.455771 -7.728529
v 10.083295 -1.455771 -10.637407
v 5.301102 -1.455771 -12.505022
v -0.000001 -1.455771 -13.148559
v -5.301103 -1.455771 -12.505023
v -10.083296 -1.455771 -10.637407
v -13.878467 -1.455771 -7.728529
v -16.315118 -1.455771 -4.063129
v -17.154729 -1.455771 -0.000000
v -16.315118 -1.455771 4.063129
v -13.878469 -1.455771 7.728530
v -10.083298 -1.455771 10.637410
v -5.301104 -1.455771 12.505026
v -0.000000 -1.455771 13.148563
v 5.301104 -1.455771 12.505028
v 10.083301 -1.455771 10.637413
v 13.878473 -1.455771 7.728533
v 16.315125 -1.455771 4.063131
vt 0.503182 0.334949
vt 0.503182 0.253400
vt 0.603563 0.253400
vt 0.603563 0.334949
vt 0.503182 0.171852
vt 0.603563 0.171852
vt 0.503182 0.408515
vt 0.603563 0.408515
vt 0.503182 0.098285
vt 0.603563 0.098285
vt 0.503182 0.466897
vt 0.603563 0.466897
vt 0.503182 0.039903
vt 0.603563 0.039903
vt 0.609107 0.171851
vt 0.609107 0.098285
vt 0.709488 0.098285
vt 0.709488 0.171851
vt 0.609107 0.039903
vt 0.709488 0.039903
vt 0.609107 0.253400
vt 0.709488 0.253400
vt 0.609107 0.334949
vt 0.709488 0.334949
vt 0.609107 0.408515
vt 0.709488 0.408515
vt 0.609107 0.466897
vt 0.709488 0.466897
vt 0.777307 0.479454
vt 0.777307 0.558095
vt 0.715032 0.558095
vt 0.715032 0.479454
vt 0.777307 0.636736
vt 0.715032 0.636736
vt 0.777307 0.408511
vt 0.715032 0.408511
vt 0.777307 0.707679
vt 0.715032 0.707679
vt 0.777307 0.352211
vt 0.715032 0.352211
vt 0.777307 0.763980
vt 0.715032 0.763980
vt 0.883232 0.324429
vt 0.883232 0.395371
vt 0.820957 0.395371
vt 0.820957 0.324429
vt 0.883232 0.451672
vt 0.820957 0.451672
vt 0.883232 0.245788
vt 0.820957 0.245788
vt 0.883232 0.167147
vt 0.820957 0.167147
vt 0.883232 0.096204
vt 0.820957 0.096204
vt 0.883232 0.039903
vt 0.820957 0.039903
vt 0.464707 0.334827
vt 0.474871 0.270652
vt 0.497947 0.270652
vt 0.486653 0.341957
vt 0.464707 0.206477
vt 0.486653 0.199347
vt 0.435209 0.392720
vt 0.453877 0.406282
vt 0.435209 0.148584
vt 0.453877 0.135021
vt 0.389265 0.438663
vt 0.402828 0.457331
vt 0.389265 0.102640
vt 0.402829 0.083972
vt 0.331372 0.468161
vt 0.338503 0.490107
vt 0.331372 0.073142
vt 0.338503 0.051197
vt 0.267198 0.478326
vt 0.267198 0.501401
vt 0.267198 0.062978
vt 0.267198 0.039903
vt 0.203023 0.468161
vt 0.195893 0.490107
vt 0.203023 0.073142
vt 0.195892 0.051197
vt 0.145130 0.438663
vt 0.131567 0.457331
vt 0.145130 0.102640
vt 0.131567 0.083972
vt 0.099186 0.392720
vt 0.080518 0.406282
vt 0.099186 0.148584
vt 0.080518 0.135021
vt 0.069688 0.334827
vt 0.047743 0.341957
vt 0.069688 0.206477
vt 0.047743 0.199347
vt 0.059524 0.270652
vt 0.036449 0.270652
vt 0.486653 0.662921
vt 0.497946 0.734226
vt 0.474871 0.734226
vt 0.464707 0.670051
vt 0.486653 0.805531
vt 0.464707 0.798401
vt 0.453877 0.598595
vt 0.435209 0.612158
vt 0.453877 0.869857
vt 0.435209 0.856294
vt 0.402828 0.547546
vt 0.389265 0.566214
vt 0.402829 0.920906
vt 0.389265 0.902238
vt 0.338503 0.514771
vt 0.331372 0.536716
vt 0.338503 0.953681
vt 0.331372 0.931736
vt 0.267198 0.503477
vt 0.267198 0.526552
vt 0.267198 0.964975
vt 0.267198 0.941900
vt 0.195892 0.514771
vt 0.203023 0.536716
vt 0.195892 0.953681
vt 0.203023 0.931736
vt 0.131567 0.547546
vt 0.145130 0.566214
vt 0.131567 0.920906
vt 0.145130 0.902238
vt 0.080518 0.598595
vt 0.099186 0.612158
vt 0.080518 0.869857
vt 0.099186 0.856294
vt 0.047743 0.662921
vt 0.069688 0.670051
vt 0.047743 0.805531
vt 0.069688 0.798401
vt 0.036449 0.734226
vt 0.059524 0.734226
vt 0.215198 0.147381
vt 0.215198 0.073815
vt 0.315579 0.073815
vt 0.315579 0.147381
vt 0.215198 0.228930
vt 0.315579 0.228930
vt 0.215198 0.310478
vt 0.315579 0.310478
vt 0.215198 0.384045
vt 0.315579 0.384045
vt 0.815414 0.276566
vt 0.815414 0.350132
vt 0.715032 0.350132
vt 0.715032 0.276566
vt 0.815414 0.195017
vt 0.715032 0.195017
vt 0.815414 0.113468
vt 0.715032 0.113468
vt 0.815414 0.039903
vt 0.715032 0.039903
vt 0.148994 0.175373
vt 0.148994 0.104430
vt 0.211270 0.104430
vt 0.211270 0.175373
vt 0.148994 0.254013
vt 0.211270 0.254013
vt 0.148994 0.332654
vt 0.211270 0.332654
vt 0.148994 0.403598
vt 0.211270 0.403598
vt 0.383398 0.331950
vt 0.383398 0.402892
vt 0.321123 0.402892
vt 0.321123 0.331950
vt 0.383398 0.253309
vt 0.321123 0.253309
vt 0.383398 0.174668
vt 0.321123 0.174668
vt 0.383398 0.103725
vt 0.321123 0.103725
vn -0.920689 0.000000 0.390296
vn -1.000000 0.000000 0.000001
vn -1.000000 0.000000 0.000001
vn -0.920689 0.000000 0.390296
vn -0.725757 0.000000 0.687951
vn -0.725757 0.000000 0.687951
vn -0.486521 0.000000 0.873669
vn -0.486521 0.000000 0.873669
vn -0.241659 0.000000 0.970361
vn -0.241659 0.000000 0.970361
vn 0.000000 0.000000 1.000000
vn 0.000000 0.000000 1.000000
vn 0.241659 0.000000 0.970361
vn 0.241659 0.000000 0.970361
vn 0.486521 0.000000 0.873669
vn 0.486521 0.000000 0.873669
vn 0.725757 0.000000 0.687952
vn 0.725757 0.000000 0.687952
vn 0.920689 0.000000 0.390297
vn 0.920689 0.000000 0.390297
vn 1.000000 0.000000 0.000000
vn 1.000000 0.000000 0.000000
vn 0.920689 0.000000 -0.390297
vn 0.920689 0.000000 -0.390297
vn 0.725757 0.000000 -0.687951
vn 0.725757 0.000000 -0.687951
vn 0.486522 0.000000 -0.873669
vn 0.486522 0.000000 -0.873669
vn 0.241660 0.000000 -0.970361
vn 0.241660 0.000000 -0.970361
vn 0.000000 0.000000 -1.000000
vn 0.000000 0.000000 -1.000000
vn -0.241659 0.000000 -0.970361
vn -0.241659 0.000000 -0.970361
vn -0.486521 0.000000 -0.873669
vn -0.486521 0.000000 -0.873669
vn -0.725757 0.000000 -0.687952
vn -0.725757 0.000000 -0.687952
vn -0.920690 0.000000 -0.390295
vn -0.920690 0.000000 -0.390295
vn 0.000000 1.000000 0.000000
vn 0.000000 1.000000 0.000000
vn 0.000000 1.000000 0.000000
vn 0.000000 1.000000 0.000000
vn 0.000000 1.000000 0.000000
vn 0.000000 1.000000 0.000000
vn 0.000000 1.000000 0.000000
vn 0.000000 1.000000 0.000000
vn 0.000000 1.000000 0.000000
vn 0.000000 1.000000 0.000000
vn 0.000000 1.000000 -0.000000
vn 0.000000 1.000000 -0.000000
vn 0.000000 1.000000 -0.000000
vn 0.000000 1.000000 -0.000000
vn 0.000000 1.000000 -0.000000
vn 0.000000 1.000000 -0.000000
vn 0.000000 1.000000 -0.000000
vn 0.000000 1.000000 -0.000000
vn 0.000000 1.000000 0.000000
vn 0.000000 1.000000 0.000000
vn 0.000000 1.000000 0.000000
vn 0.000000 1.000000 0.000000
vn 0.000000 1.000000 -0.000000
vn 0.000000 1.000000 -0.000000
vn 0.000000 1.000000 -0.000000
vn 0.000000 1.000000 -0.000000
vn 0.000000 1.000000 -0.000000
vn 0.000000 1.000000 -0.000000
vn 0.000000 1.000000 0.000000
vn 0.000000 1.000000 0.000000
vn 0.000000 1.000000 0.000000
vn 0.000000 1.000000 0.000000
vn 0.000000 1.000000 0.000000
vn 0.000000 1.000000 0.000000
vn 0.000000 1.000000 0.000000
vn 0.000000 1.000000 0.000000
vn 0.000000 1.000000 0.000000
vn 0.000000 1.000000 0.000000
vn 0.000000 1.000000 0.000000
vn 0.000000 1.000000 0.000000
vn 0.920689 0.000000 -0.390296
vn 1.000000 0.000000 -0.000001
vn 1.000000 0.000000 -0.000001
vn 0.920689 0.000000 -0.390296
vn 0.725757 0.000000 -0.687952
vn 0.725757 0.000000 -0.687952
vn 0.486522 0.000000 -0.873669
vn 0.486522 0.000000 -0.873669
vn 0.241660 0.000000 -0.970361
vn 0.241660 0.000000 -0.970361
vn 0.000000 0.000000 -1.000000
vn 0.000000 0.000000 -1.000000
vn -0.241660 0.000000 -0.970361
vn -0.241660 0.000000 -0.970361
vn -0.486522 0.000000 -0.873669
vn -0.486522 0.000000 -0.873669
vn -0.725757 0.000000 -0.687952
vn -0.725757 0.000000 -0.687952
vn -0.920689 0.000000 -0.390297
vn -0.920689 0.000000 -0.390297
vn -1.000000 0.000000 0.000000
vn -1.000000 0.000000 0.000000
vn -0.920689 0.000000 0.390296
vn -0.920689 0.000000 0.390296
vn -0.725757 0.000000 0.687951
vn -0.725757 0.000000 0.687951
vn -0.486522 0.000000 0.873668
vn -0.486522 0.000000 0.873668
vn -0.241659 0.000000 0.970361
vn -0.241659 0.000000 0.970361
vn -0.000000 0.000000 1.000000
vn -0.000000 0.000000 1.000000
vn 0.241659 0.000000 0.970361
vn 0.241659 0.000000 0.970361
vn 0.486521 0.000000 0.873669
vn 0.486521 0.000000 0.873669
vn 0.725757 0.000000 0.687952
vn 0.725757 0.000000 0.687952
vn 0.920690 0.000000 0.390295
vn 0.920690 0.000000 0.390295
vn 0.000000 -1.000000 -0.000000
vn 0.000000 -1.000000 -0.000000
vn 0.000000 -1.000000 -0.000000
vn 0.000000 -1.000000 -0.000000
vn 0.000000 -1.000000 -0.000000
vn 0.000000 -1.000000 -0.000000
vn 0.000000 -1.000000 -0.000000
vn 0.000000 -1.000000 -0.000000
vn 0.000000 -1.000000 0.000000
vn 0.000000 -1.000000 0.000000
vn 0.000000 -1.000000 0.000000
vn 0.000000 -1.000000 0.000000
vn 0.000000 -1.000000 -0.000000
vn 0.000000 -1.000000 -0.000000
vn 0.000000 -1.000000 0.000000
vn 0.000000 -1.000000 0.000000
vn 0.000000 -1.000000 0.000000
vn 0.000000 -1.000000 0.000000
vn 0.000000 -1.000000 -0.000000
vn 0.000000 -1.000000 -0.000000
vn 0.000000 -1.000000 -0.000000
vn 0.000000 -1.000000 0.000000
vn 0.000000 -1.000000 0.000000
vn 0.000000 -1.000000 0.000000
vn 0.000000 -1.000000 0.000000
vn 0.000000 -1.000000 0.000000
vn 0.000000 -1.000000 0.000000
vn 0.000000 -1.000000 0.000000
vn 0.000000 -1.000000 0.000000
vn 0.000000 -1.000000 0.000000
vn 0.000000 -1.000000 0.000000
vn 0.000000 -1.000000 0.000000
vn 0.000000 -1.000000 0.000000
vn 0.000000 -1.000000 0.000000
vn 0.000000 -1.000000 0.000000
vn 0.000000 -1.000000 -0.000000
vn 0.000000 -1.000000 0.000000
vn 0.000000 -1.000000 0.000000
vn 0.000000 -1.000000 -0.000000
vn 0.000000 -1.000000 -0.000000
s 1
g outer_water_circle design
usemtl initialShadingGroup
f 2/1/1 1/2/2 21/3/3 22/4/4
f 3/7/5 2/1/1 22/4/4 23/8/6
f 4/11/7 3/7/5 23/8/6 24/12/8
f 5/137/9 4/138/7 24/139/8 25/140/10
f 6/141/11 5/137/9 25/140/10 26/142/12
f 7/143/13 6/141/11 26/142/12 27/144/14
f 8/145/15 7/143/13 27/144/14 28/146/16
f 9/16/17 8/19/15 28/20/16 29/17/18
f 10/15/19 9/16/17 29/17/18 30/18/20
f 11/21/21 10/15/19 30/18/20 31/22/22
f 12/23/23 11/21/21 31/22/22 32/24/24
f 13/25/25 12/23/23 32/24/24 33/26/26
f 14/27/27 13/25/25 33/26/26 34/28/28
f 15/147/29 14/148/27 34/149/28 35/150/30
f 16/151/31 15/147/29 35/150/30 36/152/32
f 17/153/33 16/151/31 36/152/32 37/154/34
f 18/155/35 17/153/33 37/154/34 38/156/36
f 19/9/37 18/13/35 38/14/36 39/10/38
f 20/5/39 19/9/37 39/10/38 40/6/40
f 1/2/2 20/5/39 40/6/40 21/3/3
s 2
f 22/57/41 21/58/42 41/59/43 42/60/44
f 23/63/45 22/57/41 42/60/44 43/64/46
f 24/67/47 23/63/45 43/64/46 44/68/48
f 25/71/49 24/67/47 44/68/48 45/72/50
f 26/75/51 25/71/49 45/72/50 46/76/52
f 27/79/53 26/75/51 46/76/52 47/80/54
f 28/83/55 27/79/53 47/80/54 48/84/56
f 29/87/57 28/83/55 48/84/56 49/88/58
f 30/91/59 29/87/57 49/88/58 50/92/60
f 31/95/61 30/91/59 50/92/60 51/96/62
f 32/93/63 31/95/61 51/96/62 52/94/64
f 33/89/65 32/93/63 52/94/64 53/90/66
f 34/85/67 33/89/65 53/90/66 54/86/68
f 35/81/69 34/85/67 54/86/68 55/82/70
f 36/77/71 35/81/69 55/82/70 56/78/72
f 37/73/73 36/77/71 56/78/72 57/74/74
f 38/69/75 37/73/73 57/74/74 58/70/76
f 39/65/77 38/69/75 58/70/76 59/66/78
f 40/61/79 39/65/77 59/66/78 60/62/80
f 21/58/42 40/61/79 60/62/80 41/59/43
s 3
f 42/29/81 41/30/82 61/31/83 62/32/84
f 43/35/85 42/29/81 62/32/84 63/36/86
f 44/39/87 43/35/85 63/36/86 64/40/88
f 45/157/89 44/158/87 64/159/88 65/160/90
f 46/161/91 45/157/89 65/160/90 66/162/92
f 47/163/93 46/161/91 66/162/92 67/164/94
f 48/165/95 47/163/93 67/164/94 68/166/96
f 49/44/97 48/47/95 68/48/96 69/45/98
f 50/43/99 49/44/97 69/45/98 70/46/100
f 51/49/101 50/43/99 70/46/100 71/50/102
f 52/51/103 51/49/101 71/50/102 72/52/104
f 53/53/105 52/51/103 72/52/104 73/54/106
f 54/55/107 53/53/105 73/54/106 74/56/108
f 55/167/109 54/168/107 74/169/108 75/170/110
f 56/171/111 55/167/109 75/170/110 76/172/112
f 57/173/113 56/171/111 76/172/112 77/174/114
f 58/175/115 57/173/113 77/174/114 78/176/116
f 59/37/117 58/41/115 78/42/116 79/38/118
f 60/33/119 59/37/117 79/38/118 80/34/120
f 41/30/82 60/33/119 80/34/120 61/31/83
s 4
f 62/97/121 61/98/122 1/99/123 2/100/124
f 63/103/125 62/97/121 2/100/124 3/104/126
f 64/107/127 63/103/125 3/104/126 4/108/128
f 65/111/129 64/107/127 4/108/128 5/112/130
f 66/115/131 65/111/129 5/112/130 6/116/132
f 67/119/133 66/115/131 6/116/132 7/120/134
f 68/123/135 67/119/133 7/120/134 8/124/136
f 69/127/137 68/123/135 8/124/136 9/128/138
f 70/131/139 69/127/137 9/128/138 10/132/140
f 71/135/141 70/131/139 10/132/140 11/136/142
f 72/133/143 71/135/141 11/136/142 12/134/144
f 73/129/145 72/133/143 12/134/144 13/130/146
f 74/125/147 73/129/145 13/130/146 14/126/148
f 75/121/149 74/125/147 14/126/148 15/122/150
f 76/117/151 75/121/149 15/122/150 16/118/152
f 77/113/153 76/117/151 16/118/152 17/114/154
f 78/109/155 77/113/153 17/114/154 18/110/156
f 79/105/157 78/109/155 18/110/156 19/106/158
f 80/101/159 79/105/157 19/106/158 20/102/160
f 61/98/122 80/101/159 20/102/160 1/99/123
